# xmcd
#
# Track frame offsets:
#	150
#	28145
#	49412
#	84904
#	121717
#
# Disc length: 1935 seconds
#
# Revision: 0
# Processed by: cddbd v1.5.1PL0 Copyright (c) Steve Scherf et al.
# Submitted via: audiograbber 1.80
#
DISCID=36078d05
DTITLE=The Doubleshots - Live at The Goffert Blues Festival
DYEAR=1900
DGENRE=
TTITLE0=Shoot Me Twice
TTITLE1=Wish You Would
TTITLE2=Headin' South
TTITLE3=The Hook
TTITLE4=Drifting
EXTD=
EXTT0=
EXTT1=
EXTT2=
EXTT3=
EXTT4=
PLAYORDER=
